<svg width="365" height="349" viewBox="0 0 365 349" fill="none" xmlns="http://www.w3.org/2000/svg">
<mask id="mask0_21_204" style="mask-type:luminance" maskUnits="userSpaceOnUse" x="0" y="0" width="365" height="349">
<path d="M0 0H364.198V349H0V0Z" fill="white"/>
</mask>
<g mask="url(#mask0_21_204)">
<mask id="mask1_21_204" style="mask-type:luminance" maskUnits="userSpaceOnUse" x="0" y="0" width="365" height="349">
<path d="M182.158 0C81.5549 0 0 78.1257 0 174.5C0 270.874 81.5549 349 182.158 349C282.761 349 364.316 270.874 364.316 174.5C364.316 78.1257 282.761 0 182.158 0Z" fill="white"/>
</mask>
<g mask="url(#mask1_21_204)">
<path d="M0 0H363.996V349H0V0Z" fill="#F6F6F6"/>
</g>
</g>
<mask id="mask2_21_204" style="mask-type:luminance" maskUnits="userSpaceOnUse" x="0" y="0" width="365" height="349">
<path d="M0 0.00424194H364.705V348.996H0V0.00424194Z" fill="white"/>
</mask>
<g mask="url(#mask2_21_204)">
<mask id="mask3_21_204" style="mask-type:luminance" maskUnits="userSpaceOnUse" x="0" y="0" width="365" height="349">
<path d="M182.154 0.00424194C81.5528 0.00424194 0 78.1278 0 174.5C0 270.872 81.5528 348.996 182.154 348.996C282.755 348.996 364.31 270.872 364.31 174.5C364.31 78.1278 282.755 0.00424194 182.154 0.00424194Z" fill="white"/>
</mask>
<g mask="url(#mask3_21_204)">
<path d="M182.154 0.00424194C81.5528 0.00424194 0 78.1278 0 174.5C0 270.872 81.5528 348.996 182.154 348.996C282.755 348.996 364.31 270.872 364.31 174.5C364.31 78.1278 282.755 0.00424194 182.154 0.00424194Z" stroke="black" stroke-width="4"/>
</g>
</g>
<mask id="mask4_21_204" style="mask-type:luminance" maskUnits="userSpaceOnUse" x="70" y="62" width="225" height="225">
<path d="M70.2342 62.5763H294.082V286.424H70.2342V62.5763Z" fill="white"/>
</mask>
<g mask="url(#mask4_21_204)">
<mask id="mask5_21_204" style="mask-type:luminance" maskUnits="userSpaceOnUse" x="70" y="62" width="225" height="225">
<path d="M182.158 62.5763C120.345 62.5763 70.2342 112.687 70.2342 174.5C70.2342 236.313 120.345 286.424 182.158 286.424C243.971 286.424 294.082 236.313 294.082 174.5C294.082 112.687 243.971 62.5763 182.158 62.5763Z" fill="white"/>
</mask>
<g mask="url(#mask5_21_204)">
<path d="M70.2342 62.5763H294.082V286.424H70.2342V62.5763Z" fill="#7AA3F3"/>
</g>
</g>
<mask id="mask6_21_204" style="mask-type:luminance" maskUnits="userSpaceOnUse" x="70" y="62" width="225" height="225">
<path d="M70.2342 62.5763H294.071V286.413H70.2342V62.5763Z" fill="white"/>
</mask>
<g mask="url(#mask6_21_204)">
<mask id="mask7_21_204" style="mask-type:luminance" maskUnits="userSpaceOnUse" x="70" y="62" width="225" height="225">
<path d="M182.154 62.5763C120.343 62.5763 70.2342 112.685 70.2342 174.496C70.2342 236.306 120.343 286.413 182.154 286.413C243.964 286.413 294.071 236.306 294.071 174.496C294.071 112.685 243.964 62.5763 182.154 62.5763Z" fill="white"/>
</mask>
<g mask="url(#mask7_21_204)">
<path d="M182.154 62.5763C120.343 62.5763 70.2342 112.685 70.2342 174.496C70.2342 236.306 120.343 286.413 182.154 286.413C243.964 286.413 294.071 236.306 294.071 174.496C294.071 112.685 243.964 62.5763 182.154 62.5763Z" stroke="black" stroke-width="4"/>
</g>
</g>
<mask id="mask8_21_204" style="mask-type:luminance" maskUnits="userSpaceOnUse" x="24" y="194" width="27" height="27">
<path d="M24.7369 194.998H50.0396V220.298H24.7369V194.998Z" fill="white"/>
</mask>
<g mask="url(#mask8_21_204)">
<path d="M37.524 194.998C36.2785 205.527 35.2687 206.537 24.7369 207.785C24.76 207.787 24.7811 207.789 24.8021 207.791C35.2729 209.034 36.2806 210.063 37.524 220.572C38.7715 210.04 39.7814 209.03 50.3131 207.785C39.7814 206.537 38.7715 205.527 37.524 194.998Z" fill="black"/>
</g>
<mask id="mask9_21_204" style="mask-type:luminance" maskUnits="userSpaceOnUse" x="313" y="194" width="27" height="27">
<path d="M313.996 194.998H339.299V220.298H313.996V194.998Z" fill="white"/>
</mask>
<g mask="url(#mask9_21_204)">
<path d="M326.784 194.998C325.538 205.527 324.526 206.537 313.996 207.785C314.018 207.787 314.041 207.789 314.062 207.791C324.53 209.034 325.54 210.063 326.784 220.572C328.029 210.04 329.041 209.03 339.571 207.785C329.041 206.537 328.029 205.527 326.784 194.998Z" fill="black"/>
</g>
<mask id="mask10_21_204" style="mask-type:luminance" maskUnits="userSpaceOnUse" x="94" y="91" width="176" height="167">
<path d="M94.908 91.5586H269.408V257.279H94.908V91.5586Z" fill="white"/>
</mask>
<g mask="url(#mask10_21_204)">
<path d="M267.085 182.032C265.665 180.692 264.313 179.223 263.067 177.668C262.259 176.659 261.491 175.609 260.776 174.529C261.491 173.45 262.257 172.402 263.067 171.393C264.313 169.838 265.665 168.369 267.085 167.029C268.583 165.613 269.408 163.621 269.343 161.561C269.28 159.504 268.335 157.566 266.753 156.245C262.261 152.5 257.25 149.553 251.862 147.489C246.438 145.41 240.754 144.272 234.943 144.098C237.697 138.985 239.553 133.501 240.461 127.768C241.366 122.073 241.316 116.264 240.314 110.504C239.959 108.473 238.751 106.687 236.994 105.602C235.24 104.518 233.1 104.236 231.123 104.825C229.223 105.393 227.275 105.831 225.333 106.128C224.058 106.321 222.764 106.46 221.466 106.538C220.885 105.372 220.357 104.186 219.888 102.987C219.171 101.148 218.575 99.2439 218.119 97.3273C217.643 95.3224 216.326 93.612 214.509 92.6358C212.689 91.6596 210.535 91.5081 208.601 92.2171C203.108 94.2284 198.048 97.0896 193.559 100.723C189.042 104.375 185.213 108.722 182.158 113.655C179.103 108.722 175.274 104.375 170.757 100.723C166.268 97.0896 161.208 94.2284 155.715 92.2171C153.78 91.5081 151.625 91.6617 149.807 92.6358C147.99 93.612 146.673 95.3224 146.197 97.3273C145.741 99.2439 145.145 101.148 144.428 102.987C143.959 104.186 143.431 105.372 142.85 106.538C141.55 106.458 140.256 106.321 138.983 106.128C137.044 105.831 135.095 105.393 133.194 104.825C131.218 104.234 129.076 104.518 127.32 105.602C125.565 106.687 124.357 108.473 124.002 110.504C123 116.264 122.95 122.073 123.855 127.768C124.764 133.496 126.617 138.981 129.373 144.098C123.562 144.272 117.878 145.41 112.454 147.489C107.066 149.553 102.057 152.5 97.5631 156.245C95.981 157.566 95.0364 159.504 94.9733 161.561C94.9081 163.621 95.7328 165.613 97.2307 167.029C98.6508 168.369 100.004 169.838 101.249 171.393C102.057 172.402 102.825 173.45 103.54 174.529C102.825 175.609 102.057 176.659 101.249 177.668C100.004 179.221 98.6508 180.689 97.2307 182.032C95.7328 183.448 94.9081 185.44 94.9733 187.5C95.0364 189.557 95.981 191.495 97.5631 192.816C102.057 196.561 107.066 199.506 112.454 201.572C117.878 203.651 123.562 204.789 129.375 204.961C126.619 210.074 124.766 215.558 123.855 221.291C122.95 226.986 123 232.795 124.002 238.557C124.357 240.588 125.565 242.374 127.322 243.459C129.076 244.543 131.218 244.825 133.194 244.234C135.095 243.665 137.044 243.228 138.983 242.933C140.252 242.74 141.546 242.603 142.85 242.523C143.433 243.689 143.959 244.875 144.428 246.074C145.145 247.913 145.741 249.817 146.197 251.734C146.673 253.739 147.99 255.449 149.807 256.425C150.855 256.987 152.038 257.284 153.228 257.284C154.08 257.284 154.916 257.136 155.715 256.844C161.208 254.833 166.268 251.971 170.757 248.338C175.274 244.684 179.103 240.339 182.158 235.406C185.213 240.339 189.042 244.684 193.559 248.338C198.048 251.971 203.108 254.833 208.599 256.842C209.398 257.136 210.236 257.284 211.088 257.284C212.279 257.284 213.461 256.987 214.509 256.423C216.326 255.449 217.643 253.739 218.119 251.734C218.575 249.817 219.171 247.913 219.888 246.074C220.357 244.875 220.885 243.689 221.466 242.523C222.766 242.601 224.058 242.738 225.333 242.933C227.273 243.228 229.221 243.665 231.123 244.234C233.1 244.825 235.24 244.543 236.996 243.457C238.751 242.374 239.959 240.588 240.314 238.557C241.316 232.797 241.366 226.988 240.461 221.291C239.553 215.565 237.699 210.08 234.943 204.961C240.754 204.787 246.438 203.649 251.862 201.572C257.25 199.506 262.261 196.561 266.753 192.816C268.335 191.495 269.28 189.557 269.343 187.497C269.408 185.44 268.583 183.448 267.085 182.032Z" fill="white"/>
</g>
<path d="M263.673 185.638C262.087 184.14 260.578 182.501 259.188 180.769C257.614 178.804 256.188 176.709 254.942 174.529C256.188 172.352 257.614 170.257 259.188 168.292C260.578 166.56 262.087 164.921 263.673 163.423C264.14 162.982 264.397 162.359 264.378 161.715C264.357 161.071 264.062 160.467 263.568 160.053C259.497 156.66 254.959 153.99 250.082 152.122C244.741 150.075 239.115 149.037 233.365 149.037C231.484 149.037 229.593 149.149 227.744 149.372C226.866 149.477 225.987 149.61 225.116 149.765C226.89 147.666 228.48 145.404 229.873 142.993C232.747 138.022 234.657 132.638 235.555 126.991C236.374 121.835 236.327 116.575 235.419 111.354C235.307 110.718 234.93 110.161 234.381 109.822C233.832 109.483 233.165 109.395 232.547 109.58C230.426 110.213 228.251 110.701 226.082 111.034C223.616 111.408 221.081 111.593 218.55 111.581C217.275 109.399 216.169 107.116 215.26 104.79C214.458 102.738 213.793 100.614 213.284 98.4718C213.137 97.8449 212.725 97.3126 212.157 97.0076C211.588 96.7025 210.917 96.6541 210.311 96.8771C205.334 98.699 200.75 101.289 196.685 104.577C192.235 108.179 188.522 112.523 185.65 117.49C184.718 119.104 183.873 120.796 183.134 122.519C182.785 123.337 182.459 124.166 182.158 124.999C181.237 122.451 180.09 119.973 178.716 117.585C178.701 117.554 178.682 117.522 178.666 117.49C175.794 112.521 172.081 108.179 167.631 104.577C163.566 101.289 158.982 98.699 154.005 96.8771C153.399 96.6541 152.728 96.7025 152.16 97.0076C151.591 97.3126 151.179 97.8449 151.032 98.4718C150.523 100.614 149.858 102.738 149.056 104.79C148.147 107.119 147.041 109.399 145.766 111.581C143.229 111.593 140.7 111.408 138.234 111.034C136.065 110.701 133.89 110.213 131.769 109.58C131.151 109.395 130.484 109.483 129.935 109.822C129.386 110.161 129.009 110.718 128.897 111.354C127.989 116.575 127.942 121.837 128.761 126.991C129.657 132.636 131.569 138.018 134.443 142.993C135.394 144.632 136.438 146.21 137.544 147.682C138.074 148.389 138.63 149.084 139.204 149.763C136.499 149.279 133.743 149.037 130.951 149.037C125.201 149.037 119.575 150.075 114.234 152.122C109.357 153.99 104.819 156.66 100.748 160.053C100.254 160.467 99.9593 161.071 99.9382 161.715C99.9193 162.359 100.176 162.982 100.643 163.423C102.231 164.921 103.74 166.56 105.128 168.292C106.702 170.257 108.128 172.352 109.374 174.529C108.128 176.709 106.702 178.804 105.128 180.769C103.74 182.501 102.231 184.14 100.643 185.638C100.176 186.079 99.9193 186.702 99.9382 187.346C99.9593 187.99 100.254 188.594 100.748 189.006C104.819 192.401 109.357 195.071 114.234 196.939C119.577 198.986 125.201 200.024 130.951 200.024C132.832 200.024 134.723 199.91 136.572 199.689C137.452 199.582 138.331 199.451 139.204 199.296C137.428 201.395 135.84 203.657 134.443 206.072C131.569 211.039 129.657 216.423 128.761 222.07C127.942 227.224 127.989 232.486 128.897 237.707C129.009 238.341 129.386 238.898 129.935 239.239C130.484 239.578 131.151 239.666 131.769 239.481C133.892 238.848 136.065 238.358 138.234 238.027C140.7 237.653 143.235 237.47 145.766 237.48C147.041 239.66 148.147 241.942 149.056 244.271C149.858 246.323 150.523 248.448 151.032 250.587C151.179 251.214 151.591 251.748 152.16 252.053C152.492 252.232 152.86 252.323 153.228 252.323C153.491 252.323 153.754 252.276 154.005 252.184C158.982 250.362 163.566 247.77 167.631 244.484C172.081 240.882 175.794 236.538 178.666 231.571C179.598 229.957 180.443 228.265 181.182 226.542C181.531 225.724 181.857 224.895 182.158 224.062C183.084 226.618 184.234 229.101 185.6 231.476C185.615 231.507 185.634 231.539 185.65 231.571C188.522 236.538 192.235 240.882 196.685 244.484C200.75 247.77 205.334 250.362 210.311 252.184C210.562 252.276 210.825 252.323 211.088 252.323C211.456 252.323 211.824 252.232 212.157 252.053C212.725 251.748 213.137 251.214 213.284 250.587C213.793 248.448 214.458 246.323 215.26 244.271C216.169 241.945 217.275 239.662 218.55 237.48C221.085 237.468 223.616 237.653 226.082 238.027C228.251 238.358 230.424 238.848 232.547 239.481C233.165 239.666 233.832 239.578 234.381 239.239C234.93 238.898 235.307 238.341 235.419 237.707C236.327 232.486 236.374 227.224 235.555 222.07C234.659 216.425 232.749 211.044 229.873 206.068C228.924 204.429 227.878 202.851 226.772 201.376C226.242 200.672 225.686 199.977 225.112 199.298C227.817 199.78 230.576 200.024 233.365 200.024C239.115 200.024 244.739 198.986 250.082 196.939C254.959 195.069 259.497 192.401 263.568 189.006C264.062 188.594 264.357 187.99 264.378 187.346C264.397 186.702 264.14 186.079 263.673 185.638Z" fill="#232323"/>
<path d="M146.746 191.718C151.516 188.166 156.845 185.598 162.523 183.974C161.301 181.43 160.579 178.663 160.406 175.84H137.348C136.646 175.84 136.071 175.266 136.071 174.563V174.498C136.071 173.795 136.646 173.221 137.348 173.221H160.404C160.579 170.282 161.353 167.343 162.775 164.585V164.583C158.635 160.478 153.878 157.207 148.516 154.901C143.107 152.576 137.174 151.293 130.951 151.293C125.357 151.293 119.998 152.33 115.044 154.228C110.354 156.024 106.025 158.593 102.196 161.784C103.862 163.358 105.431 165.062 106.891 166.882C108.65 169.078 110.232 171.424 111.608 173.896L111.962 174.529L111.608 175.165C110.232 177.635 108.65 179.983 106.891 182.179C105.431 183.999 103.862 185.703 102.196 187.277C106.025 190.468 110.354 193.037 115.044 194.834C119.998 196.731 125.357 197.768 130.951 197.768C132.766 197.768 134.552 197.659 136.301 197.449C137.965 197.249 139.595 196.958 141.186 196.582C142.919 194.804 144.781 193.182 146.746 191.718Z" fill="#ED5353"/>
<path d="M180.53 196.235C179.173 196.136 177.82 195.909 176.492 195.551C175.11 195.179 173.745 194.661 172.415 193.996L160.886 213.938C160.71 214.243 160.449 214.443 160.11 214.534C159.769 214.624 159.443 214.582 159.14 214.405L159.087 214.374C158.479 214.023 158.269 213.24 158.62 212.632L170.149 192.688C168.91 191.873 167.78 190.95 166.769 189.942C165.651 188.831 164.673 187.617 163.84 186.324C158.244 187.826 152.978 190.34 148.314 193.813C143.589 197.333 139.509 201.82 136.4 207.2C133.604 212.032 131.824 217.187 130.993 222.421C130.206 227.378 130.267 232.41 131.123 237.32C133.347 236.656 135.611 236.146 137.893 235.799C140.652 235.378 143.475 235.187 146.332 235.231L147.06 235.242L147.434 235.864C148.897 238.305 150.142 240.844 151.16 243.451C152.002 245.607 152.694 247.818 153.228 250.067C157.909 248.353 162.304 245.889 166.209 242.731C170.337 239.393 173.915 235.275 176.709 230.443C177.607 228.89 178.405 227.289 179.103 225.657C179.762 224.115 180.328 222.558 180.797 220.995C179.623 216.833 179.03 212.512 179.03 208.189C179.03 204.166 179.539 200.15 180.53 196.235Z" fill="#ED5353"/>
<path d="M221.769 198.942C219.36 198.33 217.021 197.533 214.767 196.563C209.272 194.2 204.421 190.893 200.165 186.788C198.528 189.189 196.479 191.173 194.169 192.694L205.696 212.632C206.047 213.24 205.837 214.023 205.229 214.374L205.176 214.405C204.873 214.582 204.547 214.624 204.206 214.534C203.867 214.443 203.607 214.243 203.43 213.938L191.901 193.996C189.202 195.341 186.242 196.115 183.227 196.264C182.187 200.154 181.653 204.164 181.653 208.189C181.653 216.004 183.658 223.608 187.607 230.439V230.443C190.401 235.275 193.979 239.39 198.107 242.731C202.012 245.889 206.407 248.353 211.088 250.067C211.622 247.818 212.314 245.607 213.156 243.451C214.174 240.844 215.42 238.305 216.882 235.864L217.254 235.242L217.982 235.231C220.841 235.187 223.664 235.378 226.423 235.799C228.705 236.146 230.969 236.656 233.193 237.32C234.049 232.41 234.11 227.378 233.323 222.421C232.492 217.187 230.712 212.032 227.918 207.198C227.005 205.624 226.019 204.135 224.965 202.731C223.967 201.404 222.901 200.139 221.769 198.942Z" fill="#ED5353"/>
<path d="M262.12 161.784C258.291 158.593 253.962 156.024 249.272 154.228C244.318 152.33 238.959 151.293 233.365 151.293C231.55 151.293 229.763 151.4 228.015 151.61C226.351 151.812 224.721 152.103 223.128 152.479C221.394 154.257 219.535 155.881 217.57 157.343C212.815 160.882 207.469 163.47 201.793 165.085C203.015 167.631 203.737 170.398 203.91 173.221H226.967C227.67 173.221 228.244 173.795 228.244 174.498V174.563C228.244 175.266 227.67 175.84 226.967 175.84H203.912C203.737 178.777 202.963 181.718 201.541 184.476C205.66 188.562 210.444 191.857 215.8 194.158C221.209 196.485 227.142 197.768 233.365 197.768C238.959 197.768 244.318 196.731 249.272 194.834C253.962 193.037 258.291 190.468 262.12 187.277C260.454 185.703 258.885 183.999 257.425 182.179C255.666 179.983 254.084 177.635 252.708 175.165L252.354 174.529L252.708 173.896C254.084 171.424 255.666 169.078 257.425 166.882C258.885 165.062 260.454 163.358 262.12 161.784Z" fill="#ED5353"/>
<path d="M142.547 150.119C144.956 150.731 147.295 151.528 149.549 152.498C155.006 154.844 159.9 158.172 164.151 162.273C165.788 159.87 167.837 157.888 170.147 156.367L158.62 136.429C158.269 135.821 158.479 135.038 159.087 134.685L159.14 134.656C159.443 134.479 159.769 134.437 160.11 134.527C160.449 134.618 160.71 134.818 160.886 135.123L172.415 155.063C175.114 153.72 178.075 152.946 181.089 152.795C184.188 141.203 182.718 129.019 176.709 118.622V118.618C173.915 113.786 170.337 109.668 166.209 106.33C162.304 103.17 157.909 100.708 153.228 98.9936C152.694 101.243 152.002 103.454 151.16 105.61C150.142 108.215 148.897 110.756 147.434 113.194L147.06 113.817L146.332 113.83C143.475 113.874 140.652 113.682 137.893 113.262C135.611 112.915 133.347 112.405 131.123 111.741C130.267 116.651 130.206 121.681 130.993 126.638C131.824 131.874 133.604 137.029 136.398 141.861C137.311 143.437 138.297 144.926 139.351 146.33C140.349 147.657 141.415 148.922 142.547 150.119Z" fill="#ED5353"/>
<path d="M183.786 152.826C185.143 152.925 186.496 153.152 187.824 153.51C189.206 153.882 190.571 154.4 191.901 155.065L203.43 135.123C203.606 134.818 203.867 134.618 204.206 134.527C204.547 134.437 204.873 134.479 205.176 134.656L205.229 134.685C205.837 135.038 206.047 135.821 205.696 136.429L194.167 156.371C195.406 157.188 196.536 158.111 197.547 159.119C198.665 160.228 199.643 161.444 200.476 162.737C206.07 161.235 211.344 158.715 216.002 155.246C220.845 151.642 224.889 147.106 227.916 141.865C230.712 137.031 232.492 131.876 233.323 126.638C234.11 121.681 234.049 116.651 233.193 111.741C230.969 112.405 228.705 112.915 226.423 113.262C223.664 113.682 220.841 113.874 217.982 113.83L217.254 113.817L216.882 113.194C215.419 110.756 214.174 108.215 213.156 105.61C212.314 103.454 211.622 101.243 211.088 98.9936C206.407 100.708 202.012 103.17 198.107 106.33C193.979 109.668 190.401 113.786 187.607 118.618C186.709 120.171 185.911 121.77 185.213 123.404C184.554 124.946 183.988 126.503 183.519 128.066C185.8 136.141 185.85 144.663 183.786 152.826Z" fill="#ED5353"/>
<path d="M216.879 167.976C216.877 167.968 216.875 167.959 216.873 167.949L216.789 167.604C215.769 163.308 213.997 159.277 211.523 155.627C208.355 150.95 204.073 147.037 199.144 144.31C198.029 143.694 196.876 143.132 195.717 142.642C195.679 142.625 195.639 142.61 195.601 142.595C192.711 141.382 189.69 140.546 186.622 140.113C183.511 139.675 180.338 139.648 177.191 140.033C172.514 140.607 168.056 142.057 163.945 144.342C158.395 147.426 153.748 151.928 150.506 157.36C149.666 158.768 148.909 160.259 148.259 161.793C146.952 164.864 146.079 168.071 145.663 171.323C144.586 179.724 146.525 188.295 151.129 195.456C154.507 200.716 159.028 204.873 164.572 207.816C165.523 208.323 166.482 208.782 167.425 209.182C167.463 209.198 167.501 209.213 167.54 209.228C171.197 210.764 175.039 211.685 178.962 211.967C179.831 212.03 180.698 212.062 181.565 212.062C184.674 212.06 187.767 211.66 190.792 210.863C195.477 209.626 199.799 207.507 203.64 204.564C207.98 201.235 211.559 196.885 213.989 191.981C214.323 191.307 214.624 190.653 214.885 190.037C214.902 189.999 214.917 189.961 214.929 189.923C216.406 186.422 217.317 182.741 217.637 178.979C217.95 175.299 217.696 171.599 216.879 167.976Z" fill="#232323"/>
<path d="M165.635 205.826C166.524 206.301 167.419 206.729 168.306 207.105H168.315C171.847 208.603 175.495 209.457 179.124 209.718C182.896 209.99 186.643 209.623 190.216 208.681C194.564 207.534 198.671 205.527 202.264 202.773C206.358 199.637 209.684 195.582 211.967 190.977C212.276 190.354 212.558 189.746 212.804 189.159V189.151C214.246 185.766 215.089 182.272 215.386 178.788C215.685 175.295 215.43 171.818 214.675 168.473L214.593 168.123C213.642 164.118 211.967 160.305 209.653 156.889C206.676 152.498 202.687 148.848 198.048 146.283C197.011 145.707 195.938 145.183 194.836 144.718H194.827C192.033 143.534 189.17 142.751 186.307 142.347C183.351 141.931 180.38 141.914 177.466 142.271C173.086 142.808 168.862 144.19 165.043 146.313C159.826 149.212 155.492 153.411 152.446 158.517C151.665 159.822 150.958 161.21 150.338 162.674C149.09 165.609 148.286 168.613 147.901 171.609C146.892 179.49 148.732 187.55 153.028 194.238C156.209 199.191 160.499 203.099 165.635 205.826Z" fill="#F69E04"/>
<path d="M187.298 170.158C187.298 173.987 189.233 177.18 191.806 177.908C192.168 178.011 192.54 178.064 192.923 178.064C196.031 178.064 198.549 174.523 198.549 170.158C198.549 165.79 196.031 162.249 192.923 162.249C192.54 162.249 192.168 162.304 191.806 162.407C189.233 163.135 187.298 166.329 187.298 170.158Z" fill="#232323"/>
<path d="M165.767 170.158C165.767 173.987 167.705 177.18 170.276 177.908C170.637 178.011 171.01 178.064 171.393 178.064C174.5 178.064 177.018 174.523 177.018 170.158C177.018 165.79 174.5 162.249 171.393 162.249C171.01 162.249 170.637 162.304 170.276 162.407C167.705 163.135 165.767 166.329 165.767 170.158Z" fill="#232323"/>
<path d="M198.248 185.267C197.945 185.154 197.613 185.162 197.316 185.297C197.02 185.429 196.792 185.671 196.677 185.976C195.749 188.421 194.198 190.613 192.189 192.315C189.393 194.684 185.831 195.988 182.158 195.988C175.744 195.988 169.91 191.964 167.64 185.976C167.524 185.671 167.297 185.431 167 185.297C166.703 185.162 166.371 185.154 166.068 185.267C165.439 185.505 165.121 186.21 165.359 186.839C166.636 190.207 168.877 193.089 171.841 195.17C174.873 197.299 178.441 198.423 182.158 198.423C186.408 198.423 190.531 196.914 193.767 194.173C196.09 192.206 197.884 189.669 198.957 186.839C199.195 186.21 198.877 185.505 198.248 185.267Z" fill="#232323"/>
<path d="M168.308 166.154C167.909 166.154 167.519 165.942 167.315 165.565L164.288 160.013C163.989 159.466 164.191 158.782 164.74 158.484C165.287 158.187 165.973 158.389 166.272 158.934L169.299 164.488C169.596 165.035 169.394 165.719 168.847 166.017C168.677 166.11 168.491 166.154 168.308 166.154Z" fill="#232323"/>
<path d="M173.833 166.154C173.65 166.154 173.465 166.11 173.293 166.017C172.746 165.719 172.544 165.035 172.842 164.488L175.87 158.934C176.168 158.389 176.854 158.187 177.401 158.484C177.948 158.782 178.15 159.466 177.854 160.013L174.824 165.565C174.62 165.942 174.233 166.154 173.833 166.154Z" fill="#232323"/>
<path d="M171.039 166.154C170.416 166.154 169.912 165.649 169.912 165.026V158.797C169.912 158.174 170.416 157.669 171.039 157.669C171.664 157.669 172.169 158.174 172.169 158.797V165.026C172.169 165.649 171.664 166.154 171.039 166.154Z" fill="#232323"/>
<path d="M190.161 166.154C189.761 166.154 189.374 165.942 189.168 165.565L186.141 160.013C185.844 159.466 186.046 158.782 186.593 158.484C187.14 158.187 187.826 158.389 188.124 158.934L191.152 164.488C191.451 165.035 191.249 165.719 190.7 166.017C190.529 166.11 190.344 166.154 190.161 166.154Z" fill="#232323"/>
<path d="M195.686 166.154C195.503 166.154 195.317 166.11 195.147 166.017C194.6 165.719 194.396 165.035 194.695 164.488L197.722 158.934C198.021 158.389 198.707 158.187 199.254 158.484C199.803 158.782 200.005 159.466 199.706 160.013L196.679 165.565C196.475 165.942 196.085 166.154 195.686 166.154Z" fill="#232323"/>
<path d="M192.894 166.154C192.269 166.154 191.764 165.649 191.764 165.026V158.797C191.764 158.174 192.269 157.669 192.894 157.669C193.517 157.669 194.021 158.174 194.021 158.797V165.026C194.021 165.649 193.517 166.154 192.894 166.154Z" fill="#232323"/>
<mask id="mask11_21_204" style="mask-type:luminance" maskUnits="userSpaceOnUse" x="147" y="141" width="69" height="69">
<path d="M147.333 141.623H215.685V209.975H147.333V141.623Z" fill="white"/>
</mask>
<g mask="url(#mask11_21_204)">
<mask id="mask12_21_204" style="mask-type:luminance" maskUnits="userSpaceOnUse" x="147" y="141" width="69" height="69">
<path d="M181.508 141.623C162.635 141.623 147.333 156.925 147.333 175.798C147.333 194.674 162.635 209.975 181.508 209.975C200.384 209.975 215.685 194.674 215.685 175.798C215.685 156.925 200.384 141.623 181.508 141.623Z" fill="white"/>
</mask>
<g mask="url(#mask12_21_204)">
<path d="M147.333 141.623H215.685V209.975H147.333V141.623Z" fill="#FFCD4C"/>
</g>
</g>
<mask id="mask13_21_204" style="mask-type:luminance" maskUnits="userSpaceOnUse" x="152" y="171" width="59" height="20">
<path d="M152.311 171.269H210.703V190.628H152.311V171.269Z" fill="white"/>
</mask>
<g mask="url(#mask13_21_204)">
<path d="M210.682 180.136C210.682 184.914 206.809 188.785 202.033 188.785C197.255 188.785 193.382 184.914 193.382 180.136C193.382 175.358 197.255 171.485 202.033 171.485C206.809 171.485 210.682 175.358 210.682 180.136ZM160.981 173.273C156.203 173.273 152.33 177.147 152.33 181.924C152.33 186.702 156.203 190.575 160.981 190.575C165.756 190.575 169.63 186.702 169.63 181.924C169.63 177.147 165.756 173.273 160.981 173.273Z" fill="#E95546"/>
</g>
<mask id="mask14_21_204" style="mask-type:luminance" maskUnits="userSpaceOnUse" x="155" y="161" width="51" height="30">
<path d="M155.768 161.574H205.317V190.628H155.768V161.574Z" fill="white"/>
</mask>
<g mask="url(#mask14_21_204)">
<path d="M183.921 177.163C183.206 176.318 182.288 175.544 181.22 175.049C180.702 174.809 180.145 174.603 179.553 174.492C179.402 174.462 179.272 174.445 179.112 174.445C179.124 174.445 178.714 174.471 178.905 174.445C178.55 174.494 178.499 174.519 178.249 174.645C177.851 174.845 177.553 175.131 177.3 175.51C177.029 175.918 176.901 176.156 176.806 176.667C176.56 178.011 176.713 179.381 176.886 180.725C176.938 181.138 176.213 181.279 176.002 180.934C175.314 179.804 174.534 178.535 174.441 177.231C174.357 176.034 174.86 174.828 175.718 173.911C176.497 173.08 177.66 172.522 178.901 172.493C180.317 172.461 181.63 173.095 182.684 173.86C183.753 174.639 184.546 175.626 184.929 176.795C185.11 177.349 184.272 177.58 183.921 177.163ZM204.772 161.957C204.16 160.968 190.483 166.335 190.104 168.144C189.721 169.968 192.986 174.704 197.994 173.667C205.157 172.184 203.215 163.598 203.215 163.598C203.215 163.598 205.321 162.841 204.772 161.957ZM193.054 189.065C191.383 185.596 187.779 183.544 184.289 183.704C182.686 183.776 180.997 184.298 179.711 185.37C178.367 186.494 177.502 187.88 176.833 189.578C176.589 190.199 177.357 190.632 177.675 190.064C179.032 187.641 181.935 185.511 184.51 185.581C189.42 185.709 191.108 188.554 192.214 189.86C192.681 190.413 193.334 189.645 193.054 189.065ZM172.403 170.839C172.733 169.722 159.079 163.133 157.478 164.059C155.864 164.993 154.682 171.386 158.629 173.621C164.995 177.227 169.63 170.671 169.63 170.671C169.63 170.671 172.11 171.837 172.403 170.839Z" fill="#3B3F40"/>
</g>
<path d="M52.4974 177.907L21.1924 173.968L24.2472 149.64L29.7929 145.339L36.1464 146.139L38.6794 149.404L43.7118 145.499L50.9995 146.417L55.6952 152.459L52.4974 177.907ZM34.4465 167.909L36.0118 155.48L34.598 153.662L31.5601 153.283L29.8518 154.613L28.2781 167.135L34.4465 167.909ZM47.322 169.525L49.0387 155.892L47.322 153.679L44.0989 153.275L42.0287 154.874L40.2952 168.65L47.322 169.525Z" fill="black"/>
<path d="M57.3313 144.337L28.1133 132.438L37.1009 110.348L44.7336 107.142L53.6707 110.777L56.5487 117.585L66.7985 115.103L68.8855 115.953L66.0664 122.878L54.2513 125.613L51.0367 133.498L60.2178 137.235L57.3313 144.337ZM45.2301 131.134L49.808 119.908L48.5626 116.971L44.3044 115.237L41.3759 116.474L36.7979 127.7L45.2301 131.134Z" fill="black"/>
<path d="M57.3735 78.5475L88.2157 86.3148L90.0165 87.6781L85.5312 93.6109L78.8999 91.7595L69.3653 104.383L72.925 110.298L68.5743 116.055L66.7734 114.691L50.9021 87.1059L57.3735 78.5475ZM65.7299 98.3656L72.1172 89.9166L59.7214 86.4915L59.0987 87.3162L65.7299 98.3656Z" fill="black"/>
<path d="M97.4194 82.2453L70.5998 66.1384L69.1944 64.3712L74.8411 59.8858L97.1333 73.485L98.202 72.6434L90.0644 47.8183L95.5344 43.476L96.9397 45.2432L106.592 74.9661L97.4194 82.2453Z" fill="black"/>
<path d="M121.89 30.8188L145.091 52.5724L146.008 54.6342L139.2 57.6468L134.303 52.8165L119.845 59.2289L120.089 66.1211L113.492 69.0496L112.574 66.9878L112.078 35.1695L121.89 30.8188ZM119.584 52.2021L129.262 47.9103L120.098 38.9059L119.155 39.3183L119.584 52.2021Z" fill="black"/>
<path d="M146.579 54.9782L145.477 48.532L164.882 45.208L166.103 43.4997L165.598 40.5207L163.763 39.2247L149.373 41.6904L142.927 37.1209L141.589 29.261L145.965 23.0757L168.131 19.2888L169.233 25.7265L150.795 28.8739L149.583 30.5906L150.063 33.3929L151.872 34.6384L166.262 32.1811L172.717 36.7422L174.106 44.8293L169.721 51.0146L146.579 54.9782Z" fill="black"/>
<path d="M190.002 50.6758L190.852 44.743L197.105 45.635L199.882 26.2714L193.629 25.3794L194.479 19.4466L214.558 22.3162L213.708 28.249L207.464 27.357L204.687 46.7206L210.931 47.6126L210.081 53.5454L190.002 50.6758Z" fill="black"/>
<path d="M213.286 53.7168L224.655 24.2884L235.595 28.5129L238.405 54.6256L239.112 54.9033L247.528 33.1245L254.344 35.7585L242.975 65.1868L232.043 60.9623L229.233 34.8412L228.517 34.5635L220.102 56.3423L213.286 53.7168Z" fill="black"/>
<path d="M264.444 80.82L281.09 62.138L272.237 54.2528L276.579 49.3803L299.999 70.2419L295.657 75.1144L286.812 67.2376L270.167 85.9196L264.444 80.82Z" fill="black"/>
<path d="M279.604 94.9384L305.439 76.8286L321.378 99.5668L316.026 103.32L304.48 86.8597L299.498 90.352L308.199 102.756L303.251 106.223L294.55 93.8191L289.349 97.463L301.147 114.285L295.795 118.038L279.604 94.9384Z" fill="black"/>
<path d="M298.807 125.736L302.492 117.186L319.584 110.403L328.125 114.098L335.893 133.663L329.825 136.07L323.455 120.022L319.937 118.516L307.794 123.338L306.279 126.839L312.65 142.887L306.574 145.302L298.807 125.736Z" fill="black"/>
<path d="M307.301 147.723L338.589 143.684L339.573 151.283L327.279 152.865L329.222 167.894L341.517 166.312L342.493 173.903L311.205 177.942L310.229 170.352L322.616 168.753L320.673 153.723L308.285 155.322L307.301 147.723Z" fill="black"/>
<path d="M52.4161 255.13L63.3729 247.767L65.788 251.36C66.3645 252.219 66.699 253.018 66.7895 253.759C66.8778 254.499 66.7726 255.164 66.4697 255.753C66.1709 256.342 65.7207 256.841 65.1148 257.251C64.5194 257.649 63.8946 257.878 63.2382 257.941C62.5818 258.002 61.9212 257.853 61.2606 257.495C60.6042 257.135 59.9836 256.521 59.4008 255.652L57.8608 253.372L53.2913 256.443L52.4161 255.13ZM58.9716 252.623L60.4948 254.878C61.0839 255.753 61.6856 256.25 62.3041 256.368C62.9268 256.49 63.5601 256.336 64.206 255.905C64.8624 255.461 65.2516 254.929 65.3757 254.306C65.4977 253.689 65.2663 252.943 64.6772 252.067L63.1541 249.812L58.9716 252.623Z" fill="black"/>
<path d="M65.8278 273.186L75.6064 264.308L81.0932 270.35L80.1255 271.234L75.699 266.362L72.2908 269.45L76.3301 273.91L75.3792 274.768L71.3399 270.308L67.8559 273.481L72.2824 278.353L71.3146 279.229L65.8278 273.186Z" fill="black"/>
<path d="M81.4985 288.9L89.9222 278.735L91.1424 279.744L83.5266 288.934L88.2644 292.855L87.4565 293.832L81.4985 288.9Z" fill="black"/>
<path d="M97.9355 301.426L108.934 292.641L110.373 293.508L107.689 307.317L106.25 306.45L106.974 302.924L102.16 300.013L99.3577 302.285L97.9355 301.426ZM103.237 299.154L107.243 301.578L108.606 294.787L103.237 299.154Z" fill="black"/>
<path d="M135.174 319.193L138.885 306.52L142.975 307.715C143.968 308.001 144.728 308.4 145.256 308.91C145.788 309.421 146.122 310.004 146.257 310.66C146.392 311.316 146.36 311.99 146.165 312.68C145.929 313.477 145.502 314.133 144.885 314.649C144.267 315.16 143.472 315.412 142.495 315.406L143.665 321.676L141.873 321.145L140.838 315.162L140.72 315.128L138.229 314.396L136.697 319.631L135.174 319.193ZM138.582 313.201L141.04 313.925C142.016 314.211 142.792 314.186 143.371 313.849C143.953 313.513 144.355 312.978 144.574 312.242C144.793 311.491 144.747 310.832 144.439 310.264C144.13 309.692 143.476 309.261 142.479 308.968L140.03 308.245L138.582 313.201Z" fill="black"/>
<path d="M157.296 324.55L159.122 311.473L167.21 312.601L167.024 313.897L160.511 312.988L159.88 317.541L165.838 318.374L165.661 319.644L159.703 318.811L159.047 323.473L165.56 324.382L165.383 325.678L157.296 324.55Z" fill="black"/>
<path d="M183.429 326.566L178.304 313.422L180.021 313.405L184.329 324.883L188.394 313.304L190.077 313.278L185.272 326.541L183.429 326.566Z" fill="black"/>
<path d="M209.626 324.382C208.357 324.614 207.189 324.532 206.125 324.138C205.064 323.747 204.172 323.09 203.449 322.169C202.729 321.25 202.254 320.128 202.018 318.803C201.778 317.48 201.837 316.268 202.195 315.167C202.552 314.063 203.163 313.139 204.021 312.399C204.884 311.654 205.95 311.166 207.219 310.935C208.515 310.705 209.689 310.791 210.745 311.195C211.805 311.595 212.691 312.252 213.404 313.165C214.115 314.073 214.593 315.191 214.835 316.514C215.07 317.839 215.011 319.055 214.658 320.166C214.309 321.277 213.707 322.201 212.849 322.935C211.994 323.671 210.922 324.153 209.626 324.382ZM209.373 323.002C210.332 322.834 211.134 322.472 211.78 321.917C212.424 321.357 212.876 320.642 213.135 319.771C213.398 318.902 213.431 317.911 213.236 316.8C213.034 315.685 212.659 314.768 212.116 314.048C211.572 313.324 210.898 312.815 210.097 312.517C209.299 312.22 208.422 312.155 207.463 312.323C206.514 312.498 205.717 312.866 205.073 313.425C204.427 313.981 203.973 314.692 203.71 315.555C203.445 316.413 203.415 317.402 203.617 318.517C203.813 319.628 204.183 320.549 204.728 321.277C205.277 322.007 205.95 322.52 206.748 322.817C207.549 323.116 208.424 323.177 209.373 323.002Z" fill="black"/>
<path d="M229.418 319.273L225.101 306.793L226.599 306.271L230.504 317.556L236.31 315.545L236.723 316.74L229.418 319.273Z" fill="black"/>
<path d="M253.723 309.328C252.916 309.749 252.101 309.972 251.283 309.993C250.469 310.01 249.693 309.789 248.952 309.328C248.216 308.863 247.58 308.114 247.042 307.081L243.179 299.684L244.584 298.944L248.455 306.349C249.049 307.49 249.754 308.173 250.568 308.403C251.38 308.634 252.226 308.518 253.101 308.058C253.98 307.599 254.557 306.972 254.826 306.181C255.095 305.39 254.931 304.426 254.338 303.286L250.467 295.881L251.88 295.14L255.743 302.537C256.282 303.57 256.528 304.523 256.484 305.398C256.437 306.269 256.168 307.037 255.676 307.704C255.181 308.367 254.531 308.908 253.723 309.328Z" fill="black"/>
<path d="M274.937 295.97C273.894 296.75 272.825 297.19 271.731 297.291C270.641 297.388 269.585 297.179 268.559 296.668C267.532 296.159 266.613 295.36 265.798 294.27C264.997 293.188 264.498 292.082 264.3 290.954C264.105 289.827 264.208 288.754 264.612 287.731C265.012 286.704 265.731 285.802 266.775 285.021C267.982 284.125 269.177 283.681 270.368 283.692C271.563 283.704 272.653 284.15 273.641 285.03L272.236 286.082C271.584 285.543 270.86 285.263 270.065 285.24C269.268 285.213 268.449 285.514 267.608 286.141C266.85 286.709 266.32 287.376 266.017 288.143C265.714 288.913 265.653 289.738 265.832 290.618C266.007 291.499 266.429 292.393 267.103 293.302C267.776 294.207 268.508 294.867 269.299 295.288C270.094 295.705 270.906 295.877 271.731 295.81C272.556 295.738 273.347 295.418 274.104 294.85C274.946 294.224 275.47 293.529 275.678 292.772C275.89 292.01 275.838 291.244 275.518 290.474L276.923 289.423C277.466 290.601 277.573 291.762 277.243 292.907C276.911 294.051 276.143 295.073 274.937 295.97ZM276.73 300.463L276.132 299.664L277.521 298.629C278.211 298.113 278.375 297.611 278.017 297.123C277.674 296.668 277.159 296.7 276.469 297.215L275.728 297.771L274.382 295.961L275.232 295.322L276.015 296.382C276.58 295.944 277.136 295.713 277.681 295.684C278.23 295.656 278.686 295.886 279.052 296.374C279.406 296.851 279.509 297.35 279.364 297.872C279.223 298.393 278.884 298.854 278.346 299.252L276.73 300.463Z" fill="black"/>
<path d="M289.066 283.82L282.965 271.138L284.135 269.926L296.994 275.632L295.815 276.844L292.55 275.354L288.637 279.385L290.219 282.625L289.066 283.82ZM288.04 278.148L291.296 274.79L284.985 271.938L288.04 278.148ZM283.639 268.925C283.403 269.173 283.15 269.327 282.881 269.388C282.612 269.445 282.359 269.493 282.124 269.531C281.884 269.564 281.674 269.678 281.493 269.867C281.173 270.193 281.194 270.581 281.552 271.029L280.912 271.694C280.514 271.184 280.312 270.707 280.306 270.263C280.296 269.821 280.455 269.428 280.786 269.085C281.011 268.849 281.257 268.704 281.526 268.647C281.796 268.586 282.052 268.536 282.292 268.496C282.528 268.458 282.742 268.336 282.932 268.134C283.073 267.995 283.146 267.822 283.15 267.62C283.15 267.414 283.062 267.196 282.881 266.964L283.529 266.299C283.916 266.783 284.116 267.257 284.127 267.721C284.133 268.182 283.971 268.584 283.639 268.925Z" fill="black"/>
<path d="M309.265 260.288C308.529 261.349 307.65 262.119 306.623 262.594C305.6 263.072 304.515 263.242 303.358 263.107C302.196 262.973 301.065 262.525 299.958 261.761C298.853 260.999 298.035 260.101 297.501 259.068C296.968 258.031 296.741 256.947 296.819 255.82C296.893 254.688 297.297 253.59 298.031 252.529C298.778 251.448 299.668 250.67 300.699 250.198C301.732 249.727 302.823 249.563 303.972 249.702C305.121 249.837 306.248 250.287 307.355 251.048C308.46 251.812 309.282 252.71 309.821 253.741C310.364 254.774 310.595 255.853 310.511 256.981C310.427 258.105 310.01 259.207 309.265 260.288ZM308.121 259.497C308.676 258.696 308.981 257.871 309.038 257.023C309.099 256.171 308.912 255.346 308.474 254.549C308.041 253.754 307.363 253.032 306.438 252.386C305.506 251.743 304.595 251.36 303.703 251.242C302.807 251.12 301.969 251.238 301.195 251.595C300.417 251.949 299.748 252.527 299.192 253.329C298.643 254.12 298.34 254.943 298.283 255.795C298.222 256.649 298.407 257.473 298.839 258.269C299.266 259.06 299.945 259.779 300.875 260.423C301.801 261.069 302.716 261.454 303.619 261.576C304.517 261.7 305.352 261.582 306.126 261.222C306.905 260.865 307.57 260.288 308.121 259.497Z" fill="black"/>
</svg>
